<?xml version="1.0" encoding="UTF-8"?>
<svg xmlns="http://www.w3.org/2000/svg"
     xmlns:xlink="http://www.w3.org/1999/xlink"
     version="1.2"
     width="150mm" height="96mm" viewBox="0 0 150 96"
     stroke="none"
     fill="#000000"
     stroke-width="0.3"
     font-size="3.88"
>
<defs>
  <marker id="arrow" markerWidth="15" markerHeight="7" refX="5" refY="3.5" orient="auto" markerUnits="strokeWidth">
    <path d="M0,0 L15,3.5 L0,7 z" stroke="context-stroke" fill="context-stroke"/>
  </marker>
</defs>
<g stroke-opacity="1" stroke-width="0.3" id="img-85321ef4-1">
  <g transform="translate(34.55,4.36)" stroke="#FF0000">
    <path fill="none" d="M-24.96,0 L24.96,0 " class="primitive"/>
  </g>
  <g transform="translate(31.83,7.09)" stroke="#FF0000">
    <path fill="none" d="M-9.78,0 L9.78,0 " class="primitive"/>
  </g>
  <g transform="translate(39.43,9.82)" stroke="#FF0000">
    <path fill="none" d="M-6.84,0 L6.84,0 " class="primitive"/>
  </g>
  <g transform="translate(43.93,12.55)" stroke="#FF0000">
    <path fill="none" d="M-2.78,0 L2.78,0 " class="primitive"/>
  </g>
  <g transform="translate(44.54,15.27)" stroke="#FF0000">
    <path fill="none" d="M-3.38,0 L3.38,0 " class="primitive"/>
  </g>
  <g transform="translate(36.87,13.91)" stroke="#FF0000">
    <path fill="none" d="M-4.28,0 L4.28,0 " class="primitive"/>
  </g>
  <g transform="translate(41.16,13.91)" stroke="#FF0000">
    <path fill="none" d="M0,1.36 L0,-1.36 " class="primitive"/>
  </g>
  <g transform="translate(27.32,11.86)" stroke="#FF0000">
    <path fill="none" d="M-5.27,0 L5.27,0 " class="primitive"/>
  </g>
  <g transform="translate(32.59,11.86)" stroke="#FF0000">
    <path fill="none" d="M0,2.05 L0,-2.05 " class="primitive"/>
  </g>
  <g transform="translate(15.82,9.48)" stroke="#FF0000">
    <path fill="none" d="M-6.23,0 L6.23,0 " class="primitive"/>
  </g>
  <g transform="translate(22.05,9.48)" stroke="#FF0000">
    <path fill="none" d="M0,2.39 L0,-2.39 " class="primitive"/>
  </g>
  <g transform="translate(8.48,6.92)" stroke="#FF0000">
    <path fill="none" d="M-1.1,0 L1.1,0 " class="primitive"/>
  </g>
  <g transform="translate(9.59,6.92)" stroke="#FF0000">
    <path fill="none" d="M0,2.56 L0,-2.56 " class="primitive"/>
  </g>
  <g transform="translate(55.19,18)" stroke="#FF0000">
    <path fill="none" d="M-14.11,0 L14.11,0 " class="primitive"/>
  </g>
  <g transform="translate(59.91,20.73)" stroke="#FF0000">
    <path fill="none" d="M-18.84,0 L18.84,0 " class="primitive"/>
  </g>
  <g transform="translate(32.96,19.36)" stroke="#FF0000">
    <path fill="none" d="M-8.11,0 L8.11,0 " class="primitive"/>
  </g>
  <g transform="translate(41.08,19.36)" stroke="#FF0000">
    <path fill="none" d="M0,1.36 L0,-1.36 " class="primitive"/>
  </g>
  <g transform="translate(44.88,23.45)" stroke="#FF0000">
    <path fill="none" d="M-12.88,0 L12.88,0 " class="primitive"/>
  </g>
  <g transform="translate(51.97,26.18)" stroke="#FF0000">
    <path fill="none" d="M-19.97,0 L19.97,0 " class="primitive"/>
  </g>
  <g transform="translate(28.43,24.82)" stroke="#FF0000">
    <path fill="none" d="M-3.57,0 L3.57,0 " class="primitive"/>
  </g>
  <g transform="translate(32,24.82)" stroke="#FF0000">
    <path fill="none" d="M0,1.36 L0,-1.36 " class="primitive"/>
  </g>
  <g transform="translate(18.93,22.09)" stroke="#FF0000">
    <path fill="none" d="M-5.92,0 L5.92,0 " class="primitive"/>
  </g>
  <g transform="translate(24.85,22.09)" stroke="#FF0000">
    <path fill="none" d="M0,2.73 L0,-2.73 " class="primitive"/>
  </g>
  <g transform="translate(51.71,28.91)" stroke="#FF0000">
    <path fill="none" d="M-8.89,0 L8.89,0 " class="primitive"/>
  </g>
  <g transform="translate(49.53,31.64)" stroke="#FF0000">
    <path fill="none" d="M-6.71,0 L6.71,0 " class="primitive"/>
  </g>
  <g transform="translate(29.95,30.27)" stroke="#FF0000">
    <path fill="none" d="M-12.87,0 L12.87,0 " class="primitive"/>
  </g>
  <g transform="translate(42.82,30.27)" stroke="#FF0000">
    <path fill="none" d="M0,1.36 L0,-1.36 " class="primitive"/>
  </g>
  <g transform="translate(41.75,34.36)" stroke="#FF0000">
    <path fill="none" d="M-14.02,0 L14.02,0 " class="primitive"/>
  </g>
  <g transform="translate(42.27,37.09)" stroke="#FF0000">
    <path fill="none" d="M-14.54,0 L14.54,0 " class="primitive"/>
  </g>
  <g transform="translate(22.4,35.73)" stroke="#FF0000">
    <path fill="none" d="M-5.33,0 L5.33,0 " class="primitive"/>
  </g>
  <g transform="translate(27.73,35.73)" stroke="#FF0000">
    <path fill="none" d="M0,1.36 L0,-1.36 " class="primitive"/>
  </g>
  <g transform="translate(15.04,33)" stroke="#FF0000">
    <path fill="none" d="M-2.03,0 L2.03,0 " class="primitive"/>
  </g>
  <g transform="translate(17.07,33)" stroke="#FF0000">
    <path fill="none" d="M0,2.73 L0,-2.73 " class="primitive"/>
  </g>
  <g transform="translate(10.2,27.55)" stroke="#FF0000">
    <path fill="none" d="M-2.82,0 L2.82,0 " class="primitive"/>
  </g>
  <g transform="translate(13.01,27.55)" stroke="#FF0000">
    <path fill="none" d="M0,5.45 L0,-5.45 " class="primitive"/>
  </g>
  <g transform="translate(5.56,17.23)" stroke="#FF0000">
    <path fill="none" d="M-1.81,0 L1.81,0 " class="primitive"/>
  </g>
  <g transform="translate(7.38,17.23)" stroke="#FF0000">
    <path fill="none" d="M0,10.31 L0,-10.31 " class="primitive"/>
  </g>
  <g transform="translate(35.64,39.82)" stroke="#1900FF">
    <path fill="none" d="M-28.26,0 L28.26,0 " class="primitive"/>
  </g>
  <g transform="translate(36.57,42.55)" stroke="#1900FF">
    <path fill="none" d="M-22.9,0 L22.9,0 " class="primitive"/>
  </g>
  <g transform="translate(32.11,45.27)" stroke="#1900FF">
    <path fill="none" d="M-15.26,0 L15.26,0 " class="primitive"/>
  </g>
  <g transform="translate(52.89,48)" stroke="#1900FF">
    <path fill="none" d="M-3.57,0 L3.57,0 " class="primitive"/>
  </g>
  <g transform="translate(51.64,50.73)" stroke="#1900FF">
    <path fill="none" d="M-2.32,0 L2.32,0 " class="primitive"/>
  </g>
  <g transform="translate(43.23,49.36)" stroke="#1900FF">
    <path fill="none" d="M-6.1,0 L6.1,0 " class="primitive"/>
  </g>
  <g transform="translate(49.32,49.36)" stroke="#1900FF">
    <path fill="none" d="M0,1.36 L0,-1.36 " class="primitive"/>
  </g>
  <g transform="translate(48.89,53.45)" stroke="#1900FF">
    <path fill="none" d="M-2.43,0 L2.43,0 " class="primitive"/>
  </g>
  <g transform="translate(50.67,56.18)" stroke="#1900FF">
    <path fill="none" d="M-0.33,0 L0.33,0 " class="primitive"/>
  </g>
  <g transform="translate(50.34,58.91)" stroke="#1900FF">
    <path fill="none" d="M0,0 L0,0 " class="primitive"/>
  </g>
  <g transform="translate(48.62,57.55)" stroke="#1900FF">
    <path fill="none" d="M-1.71,0 L1.71,0 " class="primitive"/>
  </g>
  <g transform="translate(50.34,57.55)" stroke="#1900FF">
    <path fill="none" d="M0,1.36 L0,-1.36 " class="primitive"/>
  </g>
  <g transform="translate(51.01,61.64)" stroke="#1900FF">
    <path fill="none" d="M-1.33,0 L1.33,0 " class="primitive"/>
  </g>
  <g transform="translate(50.35,64.36)" stroke="#1900FF">
    <path fill="none" d="M-0.66,0 L0.66,0 " class="primitive"/>
  </g>
  <g stroke-opacity="1" stroke-width="0.3" id="img-85321ef4-2">
    <g transform="translate(50.35,64.36)" stroke="#1900FF">
      <path fill="none" d="M-0.66,0 L0.66,0 " class="primitive"/>
    </g>
    <g transform="translate(51.46,67.09)" stroke="#1900FF">
      <path fill="none" d="M-0.22,0 L0.22,0 " class="primitive"/>
    </g>
    <g transform="translate(51.35,69.82)" stroke="#1900FF">
      <path fill="none" d="M-0.11,0 L0.11,0 " class="primitive"/>
    </g>
    <g transform="translate(50.46,68.45)" stroke="#1900FF">
      <path fill="none" d="M-0.78,0 L0.78,0 " class="primitive"/>
    </g>
    <g transform="translate(51.24,68.45)" stroke="#1900FF">
      <path fill="none" d="M0,1.36 L0,-1.36 " class="primitive"/>
    </g>
    <g transform="translate(49.69,66.41)" stroke="#1900FF">
      <path fill="none" d="M0,0 L0,0 " class="primitive"/>
    </g>
    <g transform="translate(49.69,66.41)" stroke="#1900FF">
      <path fill="none" d="M0,2.05 L0,-2.05 " class="primitive"/>
    </g>
    <g transform="translate(48.3,64.02)" stroke="#1900FF">
      <path fill="none" d="M-1.39,0 L1.39,0 " class="primitive"/>
    </g>
    <g transform="translate(49.69,64.02)" stroke="#1900FF">
      <path fill="none" d="M0,2.39 L0,-2.39 " class="primitive"/>
    </g>
    <g transform="translate(46.69,60.78)" stroke="#1900FF">
      <path fill="none" d="M-0.22,0 L0.22,0 " class="primitive"/>
    </g>
    <g transform="translate(46.91,60.78)" stroke="#1900FF">
      <path fill="none" d="M0,3.24 L0,-3.24 " class="primitive"/>
    </g>
    <g transform="translate(44.81,57.12)" stroke="#1900FF">
      <path fill="none" d="M-1.65,0 L1.65,0 " class="primitive"/>
    </g>
    <g transform="translate(46.46,57.12)" stroke="#1900FF">
      <path fill="none" d="M0,3.66 L0,-3.66 " class="primitive"/>
    </g>
    <g transform="translate(50.09,72.55)" stroke="#1900FF">
      <path fill="none" d="M-1.1,0 L1.1,0 " class="primitive"/>
    </g>
    <g transform="translate(50.45,75.27)" stroke="#1900FF">
      <path fill="none" d="M-1.46,0 L1.46,0 " class="primitive"/>
    </g>
    <g transform="translate(48.78,73.91)" stroke="#1900FF">
      <path fill="none" d="M-0.21,0 L0.21,0 " class="primitive"/>
    </g>
    <g transform="translate(48.99,73.91)" stroke="#1900FF">
      <path fill="none" d="M0,1.36 L0,-1.36 " class="primitive"/>
    </g>
    <g transform="translate(52.34,78)" stroke="#1900FF">
      <path fill="none" d="M-0.6,0 L0.6,0 " class="primitive"/>
    </g>
    <g transform="translate(52.03,80.73)" stroke="#1900FF">
      <path fill="none" d="M-0.29,0 L0.29,0 " class="primitive"/>
    </g>
    <g transform="translate(51.08,79.36)" stroke="#1900FF">
      <path fill="none" d="M-0.67,0 L0.67,0 " class="primitive"/>
    </g>
    <g transform="translate(51.74,79.36)" stroke="#1900FF">
      <path fill="none" d="M0,1.36 L0,-1.36 " class="primitive"/>
    </g>
    <g transform="translate(51.16,83.45)" stroke="#1900FF">
      <path fill="none" d="M0,0 L0,0 " class="primitive"/>
    </g>
    <g transform="translate(52.04,86.18)" stroke="#1900FF">
      <path fill="none" d="M-0.88,0 L0.88,0 " class="primitive"/>
    </g>
    <g transform="translate(51.49,88.91)" stroke="#1900FF">
      <path fill="none" d="M-0.11,0 L0.11,0 " class="primitive"/>
    </g>
    <g transform="translate(51.6,91.64)" stroke="#1900FF">
      <path fill="none" d="M-0.22,0 L0.22,0 " class="primitive"/>
    </g>
    <g transform="translate(51.27,90.27)" stroke="#1900FF">
      <path fill="none" d="M-0.11,0 L0.11,0 " class="primitive"/>
    </g>
    <g transform="translate(51.38,90.27)" stroke="#1900FF">
      <path fill="none" d="M0,1.36 L0,-1.36 " class="primitive"/>
    </g>
    <g transform="translate(51.16,88.23)" stroke="#1900FF">
      <path fill="none" d="M0,0 L0,0 " class="primitive"/>
    </g>
    <g transform="translate(51.16,88.23)" stroke="#1900FF">
      <path fill="none" d="M0,2.05 L0,-2.05 " class="primitive"/>
    </g>
    <g transform="translate(50.78,85.84)" stroke="#1900FF">
      <path fill="none" d="M-0.37,0 L0.37,0 " class="primitive"/>
    </g>
    <g transform="translate(51.16,85.84)" stroke="#1900FF">
      <path fill="none" d="M0,2.39 L0,-2.39 " class="primitive"/>
    </g>
    <g transform="translate(49.49,82.6)" stroke="#1900FF">
      <path fill="none" d="M-0.92,0 L0.92,0 " class="primitive"/>
    </g>
    <g transform="translate(50.41,82.6)" stroke="#1900FF">
      <path fill="none" d="M0,3.24 L0,-3.24 " class="primitive"/>
    </g>
    <g transform="translate(45.86,78.26)" stroke="#1900FF">
      <path fill="none" d="M-2.71,0 L2.71,0 " class="primitive"/>
    </g>
    <g transform="translate(48.57,78.26)" stroke="#1900FF">
      <path fill="none" d="M0,4.35 L0,-4.35 " class="primitive"/>
    </g>
    <g transform="translate(40.14,67.69)" stroke="#1900FF">
      <path fill="none" d="M-3.01,0 L3.01,0 " class="primitive"/>
    </g>
    <g transform="translate(43.15,67.69)" stroke="#1900FF">
      <path fill="none" d="M0,10.57 L0,-10.57 " class="primitive"/>
    </g>
    <g transform="translate(26.99,58.53)" stroke="#1900FF">
      <path fill="none" d="M-10.14,0 L10.14,0 " class="primitive"/>
    </g>
    <g transform="translate(37.13,58.53)" stroke="#1900FF">
      <path fill="none" d="M0,9.16 L0,-9.16 " class="primitive"/>
    </g>
    <g transform="translate(15.26,51.9)" stroke="#1900FF">
      <path fill="none" d="M-1.59,0 L1.59,0 " class="primitive"/>
    </g>
    <g transform="translate(16.85,51.9)" stroke="#1900FF">
      <path fill="none" d="M0,6.63 L0,-6.63 " class="primitive"/>
    </g>
    <g transform="translate(10.53,47.22)" stroke="#1900FF">
      <path fill="none" d="M-3.15,0 L3.15,0 " class="primitive"/>
    </g>
    <g transform="translate(13.67,47.22)" stroke="#1900FF">
      <path fill="none" d="M0,4.68 L0,-4.68 " class="primitive"/>
    </g>
    <g transform="translate(5.56,43.52)" stroke="#1900FF">
      <path fill="none" d="M-1.81,0 L1.81,0 " class="primitive"/>
    </g>
    <g transform="translate(7.38,43.52)" stroke="#1900FF">
      <path fill="none" d="M0,3.7 L0,-3.7 " class="primitive"/>
    </g>
    <g transform="translate(3.75,30.38)" stroke="#FF0000">
      <path fill="none" d="M0,0 L0,0 " class="primitive"/>
    </g>
    <g transform="translate(3.75,30.38)" stroke="#FF0000">
      <path fill="none" d="M0,13.14 L0,-13.14 " class="primitive"/>
    </g>
  </g>
</g>
<g fill-opacity="1" id="img-85321ef4-3">
  <g transform="translate(59.52,4.36)" fill="#FF0000">
    <circle cx="0" cy="0" r="0.75" class="primitive"/>
  </g>
  <g transform="translate(41.61,7.09)" fill="#FF0000">
    <circle cx="0" cy="0" r="0.75" class="primitive"/>
  </g>
  <g transform="translate(46.26,9.82)" fill="#FF0000">
    <circle cx="0" cy="0" r="0.75" class="primitive"/>
  </g>
  <g transform="translate(46.71,12.55)" fill="#FF0000">
    <circle cx="0" cy="0" r="0.75" class="primitive"/>
  </g>
  <g transform="translate(47.92,15.27)" fill="#FF0000">
    <circle cx="0" cy="0" r="0.75" class="primitive"/>
  </g>
  <g transform="translate(41.16,13.91)" fill="#FF0000">
    <circle cx="0" cy="0" r="0.75" class="primitive"/>
  </g>
  <g transform="translate(32.59,11.86)" fill="#FF0000">
    <circle cx="0" cy="0" r="0.75" class="primitive"/>
  </g>
  <g transform="translate(22.05,9.48)" fill="#FF0000">
    <circle cx="0" cy="0" r="0.75" class="primitive"/>
  </g>
  <g transform="translate(9.59,6.92)" fill="#FF0000">
    <circle cx="0" cy="0" r="0.75" class="primitive"/>
  </g>
  <g transform="translate(69.29,18)" fill="#FF0000">
    <circle cx="0" cy="0" r="0.75" class="primitive"/>
  </g>
  <g transform="translate(78.75,20.73)" fill="#FF0000">
    <circle cx="0" cy="0" r="0.75" class="primitive"/>
  </g>
  <g transform="translate(41.08,19.36)" fill="#FF0000">
    <circle cx="0" cy="0" r="0.75" class="primitive"/>
  </g>
  <g transform="translate(57.75,23.45)" fill="#FF0000">
    <circle cx="0" cy="0" r="0.75" class="primitive"/>
  </g>
  <g transform="translate(71.94,26.18)" fill="#FF0000">
    <circle cx="0" cy="0" r="0.75" class="primitive"/>
  </g>
  <g transform="translate(32,24.82)" fill="#FF0000">
    <circle cx="0" cy="0" r="0.75" class="primitive"/>
  </g>
  <g transform="translate(24.85,22.09)" fill="#FF0000">
    <circle cx="0" cy="0" r="0.75" class="primitive"/>
  </g>
  <g transform="translate(60.61,28.91)" fill="#FF0000">
    <circle cx="0" cy="0" r="0.75" class="primitive"/>
  </g>
  <g transform="translate(56.25,31.64)" fill="#FF0000">
    <circle cx="0" cy="0" r="0.75" class="primitive"/>
  </g>
  <g transform="translate(42.82,30.27)" fill="#FF0000">
    <circle cx="0" cy="0" r="0.75" class="primitive"/>
  </g>
  <g transform="translate(55.77,34.36)" fill="#FF0000">
    <circle cx="0" cy="0" r="0.75" class="primitive"/>
  </g>
  <g transform="translate(56.81,37.09)" fill="#FF0000">
    <circle cx="0" cy="0" r="0.75" class="primitive"/>
  </g>
  <g transform="translate(27.73,35.73)" fill="#FF0000">
    <circle cx="0" cy="0" r="0.75" class="primitive"/>
  </g>
  <g transform="translate(17.07,33)" fill="#FF0000">
    <circle cx="0" cy="0" r="0.75" class="primitive"/>
  </g>
  <g transform="translate(13.01,27.55)" fill="#FF0000">
    <circle cx="0" cy="0" r="0.75" class="primitive"/>
  </g>
  <g transform="translate(7.38,17.23)" fill="#FF0000">
    <circle cx="0" cy="0" r="0.75" class="primitive"/>
  </g>
  <g transform="translate(63.9,39.82)" fill="#1900FF">
    <circle cx="0" cy="0" r="0.75" class="primitive"/>
  </g>
  <g transform="translate(59.46,42.55)" fill="#1900FF">
    <circle cx="0" cy="0" r="0.75" class="primitive"/>
  </g>
  <g transform="translate(47.37,45.27)" fill="#1900FF">
    <circle cx="0" cy="0" r="0.75" class="primitive"/>
  </g>
  <g transform="translate(56.47,48)" fill="#1900FF">
    <circle cx="0" cy="0" r="0.75" class="primitive"/>
  </g>
  <g transform="translate(53.97,50.73)" fill="#1900FF">
    <circle cx="0" cy="0" r="0.75" class="primitive"/>
  </g>
  <g transform="translate(49.32,49.36)" fill="#1900FF">
    <circle cx="0" cy="0" r="0.75" class="primitive"/>
  </g>
  <g transform="translate(51.33,53.45)" fill="#1900FF">
    <circle cx="0" cy="0" r="0.75" class="primitive"/>
  </g>
  <g transform="translate(51,56.18)" fill="#1900FF">
    <circle cx="0" cy="0" r="0.75" class="primitive"/>
  </g>
  <g transform="translate(50.34,58.91)" fill="#1900FF">
    <circle cx="0" cy="0" r="0.75" class="primitive"/>
  </g>
  <g transform="translate(50.34,57.55)" fill="#1900FF">
    <circle cx="0" cy="0" r="0.75" class="primitive"/>
  </g>
  <g transform="translate(52.34,61.64)" fill="#1900FF">
    <circle cx="0" cy="0" r="0.75" class="primitive"/>
  </g>
  <g transform="translate(51.01,64.36)" fill="#1900FF">
    <circle cx="0" cy="0" r="0.75" class="primitive"/>
  </g>
  <g transform="translate(51.68,67.09)" fill="#1900FF">
    <circle cx="0" cy="0" r="0.75" class="primitive"/>
  </g>
  <g transform="translate(51.46,69.82)" fill="#1900FF">
    <circle cx="0" cy="0" r="0.75" class="primitive"/>
  </g>
  <g transform="translate(51.24,68.45)" fill="#1900FF">
    <circle cx="0" cy="0" r="0.75" class="primitive"/>
  </g>
  <g transform="translate(49.69,66.41)" fill="#1900FF">
    <circle cx="0" cy="0" r="0.75" class="primitive"/>
  </g>
  <g transform="translate(49.69,64.02)" fill="#1900FF">
    <circle cx="0" cy="0" r="0.75" class="primitive"/>
  </g>
  <g transform="translate(46.91,60.78)" fill="#1900FF">
    <circle cx="0" cy="0" r="0.75" class="primitive"/>
  </g>
  <g transform="translate(46.46,57.12)" fill="#1900FF">
    <circle cx="0" cy="0" r="0.75" class="primitive"/>
  </g>
  <g transform="translate(51.18,72.55)" fill="#1900FF">
    <circle cx="0" cy="0" r="0.75" class="primitive"/>
  </g>
  <g transform="translate(51.92,75.27)" fill="#1900FF">
    <circle cx="0" cy="0" r="0.75" class="primitive"/>
  </g>
  <g transform="translate(48.99,73.91)" fill="#1900FF">
    <circle cx="0" cy="0" r="0.75" class="primitive"/>
  </g>
  <g transform="translate(52.94,78)" fill="#1900FF">
    <circle cx="0" cy="0" r="0.75" class="primitive"/>
  </g>
  <g transform="translate(52.32,80.73)" fill="#1900FF">
    <circle cx="0" cy="0" r="0.75" class="primitive"/>
  </g>
  <g transform="translate(51.74,79.36)" fill="#1900FF">
    <circle cx="0" cy="0" r="0.75" class="primitive"/>
  </g>
  <g transform="translate(51.16,83.45)" fill="#1900FF">
    <circle cx="0" cy="0" r="0.75" class="primitive"/>
  </g>
  <g fill-opacity="1" id="img-85321ef4-4">
    <g transform="translate(51.16,83.45)" fill="#1900FF">
      <circle cx="0" cy="0" r="0.75" class="primitive"/>
    </g>
    <g transform="translate(52.93,86.18)" fill="#1900FF">
      <circle cx="0" cy="0" r="0.75" class="primitive"/>
    </g>
    <g transform="translate(51.6,88.91)" fill="#1900FF">
      <circle cx="0" cy="0" r="0.75" class="primitive"/>
    </g>
    <g transform="translate(51.82,91.64)" fill="#1900FF">
      <circle cx="0" cy="0" r="0.75" class="primitive"/>
    </g>
    <g transform="translate(51.38,90.27)" fill="#1900FF">
      <circle cx="0" cy="0" r="0.75" class="primitive"/>
    </g>
    <g transform="translate(51.16,88.23)" fill="#1900FF">
      <circle cx="0" cy="0" r="0.75" class="primitive"/>
    </g>
    <g transform="translate(51.16,85.84)" fill="#1900FF">
      <circle cx="0" cy="0" r="0.75" class="primitive"/>
    </g>
    <g transform="translate(50.41,82.6)" fill="#1900FF">
      <circle cx="0" cy="0" r="0.75" class="primitive"/>
    </g>
    <g transform="translate(48.57,78.26)" fill="#1900FF">
      <circle cx="0" cy="0" r="0.75" class="primitive"/>
    </g>
    <g transform="translate(43.15,67.69)" fill="#1900FF">
      <circle cx="0" cy="0" r="0.75" class="primitive"/>
    </g>
    <g transform="translate(37.13,58.53)" fill="#1900FF">
      <circle cx="0" cy="0" r="0.75" class="primitive"/>
    </g>
    <g transform="translate(16.85,51.9)" fill="#1900FF">
      <circle cx="0" cy="0" r="0.75" class="primitive"/>
    </g>
    <g transform="translate(13.67,47.22)" fill="#1900FF">
      <circle cx="0" cy="0" r="0.75" class="primitive"/>
    </g>
    <g transform="translate(7.38,43.52)" fill="#1900FF">
      <circle cx="0" cy="0" r="0.75" class="primitive"/>
    </g>
    <g transform="translate(3.75,30.38)" fill="#FF0000">
      <circle cx="0" cy="0" r="0.75" class="primitive"/>
    </g>
  </g>
</g>
<g stroke-opacity="1" fill-opacity="1" font-size="1.41" stroke-width="0.1" id="img-85321ef4-5">
  <g transform="translate(61.39,4.36)" stroke="#000000">
    <g class="primitive">
      <text dy="0.35em">XM_027533928_Bos_indicus_x_Bos_taurus</text>
    </g>
  </g>
  <g transform="translate(43.48,7.09)" stroke="#000000">
    <g class="primitive">
      <text dy="0.35em">XM_042974087_Panthera_tigris</text>
    </g>
  </g>
  <g transform="translate(48.14,9.82)" stroke="#000000">
    <g class="primitive">
      <text dy="0.35em">XM_008696415_Ursus_maritimus</text>
    </g>
  </g>
  <g transform="translate(48.58,12.55)" stroke="#000000">
    <g class="primitive">
      <text dy="0.35em">XM_025857612_Callorhinus_ursinus</text>
    </g>
  </g>
  <g transform="translate(49.79,15.27)" stroke="#000000">
    <g class="primitive">
      <text dy="0.35em">XM_034996559_Mirounga_leonina</text>
    </g>
  </g>
  <g transform="translate(43.03,13.91)" stroke="#000000">
    <g class="primitive">
      <text dy="0.35em"></text>
    </g>
  </g>
  <g transform="translate(34.47,11.86)" stroke="#000000">
    <g class="primitive">
      <text dy="0.35em"></text>
    </g>
  </g>
  <g transform="translate(23.93,9.48)" stroke="#000000">
    <g class="primitive">
      <text dy="0.35em"></text>
    </g>
  </g>
  <g transform="translate(11.46,6.92)" stroke="#000000">
    <g class="primitive">
      <text dy="0.35em"></text>
    </g>
  </g>
  <g transform="translate(71.17,18)" stroke="#000000">
    <g class="primitive">
      <text dy="0.35em">bat_Trachops_cirrhosus</text>
    </g>
  </g>
  <g transform="translate(80.62,20.73)" stroke="#000000">
    <g class="primitive">
      <text dy="0.35em">bat_Pteronotus_parnellii</text>
    </g>
  </g>
  <g transform="translate(42.95,19.36)" stroke="#000000">
    <g class="primitive">
      <text dy="0.35em"></text>
    </g>
  </g>
  <g transform="translate(59.63,23.45)" stroke="#000000">
    <g class="primitive">
      <text dy="0.35em">bat_Molossus_molossus</text>
    </g>
  </g>
  <g transform="translate(73.81,26.18)" stroke="#000000">
    <g class="primitive">
      <text dy="0.35em">bat_Pipistrellus_kuhlii</text>
    </g>
  </g>
  <g transform="translate(33.88,24.82)" stroke="#000000">
    <g class="primitive">
      <text dy="0.35em"></text>
    </g>
  </g>
  <g transform="translate(26.73,22.09)" stroke="#000000">
    <g class="primitive">
      <text dy="0.35em"></text>
    </g>
  </g>
  <g transform="translate(62.48,28.91)" stroke="#000000">
    <g class="primitive">
      <text dy="0.35em">bat_Rousettus_aegyptiacus</text>
    </g>
  </g>
  <g transform="translate(58.12,31.64)" stroke="#000000">
    <g class="primitive">
      <text dy="0.35em">bat_Cynopterus_brachyotis</text>
    </g>
  </g>
  <g transform="translate(44.7,30.27)" stroke="#000000">
    <g class="primitive">
      <text dy="0.35em"></text>
    </g>
  </g>
  <g transform="translate(57.64,34.36)" stroke="#000000">
    <g class="primitive">
      <text dy="0.35em">bat_Rhinolophus_sinicus</text>
    </g>
  </g>
  <g transform="translate(58.69,37.09)" stroke="#000000">
    <g class="primitive">
      <text dy="0.35em">bat_Hipposideros_pratti</text>
    </g>
  </g>
  <g transform="translate(29.61,35.73)" stroke="#000000">
    <g class="primitive">
      <text dy="0.35em"></text>
    </g>
  </g>
  <g transform="translate(18.95,33)" stroke="#000000">
    <g class="primitive">
      <text dy="0.35em"></text>
    </g>
  </g>
  <g transform="translate(14.89,27.55)" stroke="#000000">
    <g class="primitive">
      <text dy="0.35em"></text>
    </g>
  </g>
  <g transform="translate(9.25,17.23)" stroke="#000000">
    <g class="primitive">
      <text dy="0.35em"></text>
    </g>
  </g>
  <g transform="translate(65.78,39.82)" stroke="#000000">
    <g class="primitive">
      <text dy="0.35em">XM_037822651_Choloepus_didactylus</text>
    </g>
  </g>
  <g transform="translate(61.34,42.55)" stroke="#000000">
    <g class="primitive">
      <text dy="0.35em">XM_004866100_Heterocephalus_glaber</text>
    </g>
  </g>
  <g transform="translate(49.24,45.27)" stroke="#000000">
    <g class="primitive">
      <text dy="0.35em">XM_012638731_Propithecus_coquereli</text>
    </g>
  </g>
  <g transform="translate(58.34,48)" stroke="#000000">
    <g class="primitive">
      <text dy="0.35em">XM_008988993_Callithrix_jacchus</text>
    </g>
  </g>
  <g transform="translate(55.84,50.73)" stroke="#000000">
    <g class="primitive">
      <text dy="0.35em">XM_032285963_Sapajus_apella</text>
    </g>
  </g>
  <g transform="translate(51.2,49.36)" stroke="#000000">
    <g class="primitive">
      <text dy="0.35em"></text>
    </g>
  </g>
  <g transform="translate(53.2,53.45)" stroke="#000000">
    <g class="primitive">
      <text dy="0.35em">XM_003261084_Nomascus_leucogenys</text>
    </g>
  </g>
  <g transform="translate(52.88,56.18)" stroke="#000000">
    <g class="primitive">
      <text dy="0.35em">NM_001131132_Pongo_abelii</text>
    </g>
  </g>
  <g transform="translate(52.21,58.91)" stroke="#000000">
    <g class="primitive">
      <text dy="0.35em">XM_024240245_Pongo_abelii</text>
    </g>
  </g>
  <g transform="translate(52.21,57.55)" stroke="#000000">
    <g class="primitive">
      <text dy="0.35em"></text>
    </g>
  </g>
  <g transform="translate(54.22,61.64)" stroke="#000000">
    <g class="primitive">
      <text dy="0.35em">XM_019019204_Gorilla_gorilla_gorilla</text>
    </g>
  </g>
  <g transform="translate(52.89,64.36)" stroke="#000000">
    <g class="primitive">
      <text dy="0.35em">NM_001371415_Homo_sapiens</text>
    </g>
  </g>
  <g transform="translate(53.55,67.09)" stroke="#000000">
    <g class="primitive">
      <text dy="0.35em">XM_008974180_Pan_paniscus</text>
    </g>
  </g>
  <g transform="translate(53.33,69.82)" stroke="#000000">
    <g class="primitive">
      <text dy="0.35em">XM_016942979_Pan_troglodytes</text>
    </g>
  </g>
  <g transform="translate(53.11,68.45)" stroke="#000000">
    <g class="primitive">
      <text dy="0.35em"></text>
    </g>
  </g>
  <g transform="translate(51.56,66.41)" stroke="#000000">
    <g class="primitive">
      <text dy="0.35em"></text>
    </g>
  </g>
  <g transform="translate(51.56,64.02)" stroke="#000000">
    <g class="primitive">
      <text dy="0.35em"></text>
    </g>
  </g>
  <g transform="translate(48.78,60.78)" stroke="#000000">
    <g class="primitive">
      <text dy="0.35em"></text>
    </g>
  </g>
  <g transform="translate(48.34,57.12)" stroke="#000000">
    <g class="primitive">
      <text dy="0.35em"></text>
    </g>
  </g>
  <g transform="translate(53.06,72.55)" stroke="#000000">
    <g class="primitive">
      <text dy="0.35em">XM_010366065_Rhinopithecus_roxellana</text>
    </g>
  </g>
  <g transform="translate(53.79,75.27)" stroke="#000000">
    <g class="primitive">
      <text dy="0.35em">XM_023199053_Piliocolobus_tephrosceles</text>
    </g>
  </g>
  <g transform="translate(50.86,73.91)" stroke="#000000">
    <g class="primitive">
      <text dy="0.35em"></text>
    </g>
  </g>
  <g transform="translate(54.81,78)" stroke="#000000">
    <g class="primitive">
      <text dy="0.35em">XM_011995533_Mandrillus_leucophaeus</text>
    </g>
  </g>
  <g transform="translate(54.19,80.73)" stroke="#000000">
    <g class="primitive">
      <text dy="0.35em">XM_012035808_Cercocebus_atys</text>
    </g>
  </g>
  <g transform="translate(53.62,79.36)" stroke="#000000">
    <g class="primitive">
      <text dy="0.35em"></text>
    </g>
  </g>
  <g transform="translate(53.03,83.45)" stroke="#000000">
    <g class="primitive">
      <text dy="0.35em">XM_011735203_Macaca_nemestrina</text>
    </g>
  </g>
  <g stroke-opacity="1" fill-opacity="1" font-size="1.41" stroke-width="0.1" id="img-85321ef4-6">
    <g transform="translate(53.03,83.45)" stroke="#000000">
      <g class="primitive">
        <text dy="0.35em">XM_011735203_Macaca_nemestrina</text>
      </g>
    </g>
    <g transform="translate(54.8,86.18)" stroke="#000000">
      <g class="primitive">
        <text dy="0.35em">NM_001135696_Macaca_mulatta</text>
      </g>
    </g>
    <g transform="translate(53.47,88.91)" stroke="#000000">
      <g class="primitive">
        <text dy="0.35em">XM_005593037_Macaca_fascicularis</text>
      </g>
    </g>
    <g transform="translate(53.69,91.64)" stroke="#000000">
      <g class="primitive">
        <text dy="0.35em">XM_015126958_Macaca_mulatta</text>
      </g>
    </g>
    <g transform="translate(53.25,90.27)" stroke="#000000">
      <g class="primitive">
        <text dy="0.35em"></text>
      </g>
    </g>
    <g transform="translate(53.03,88.23)" stroke="#000000">
      <g class="primitive">
        <text dy="0.35em"></text>
      </g>
    </g>
    <g transform="translate(53.03,85.84)" stroke="#000000">
      <g class="primitive">
        <text dy="0.35em"></text>
      </g>
    </g>
    <g transform="translate(52.28,82.6)" stroke="#000000">
      <g class="primitive">
        <text dy="0.35em"></text>
      </g>
    </g>
    <g transform="translate(50.45,78.26)" stroke="#000000">
      <g class="primitive">
        <text dy="0.35em"></text>
      </g>
    </g>
    <g transform="translate(45.03,67.69)" stroke="#000000">
      <g class="primitive">
        <text dy="0.35em"></text>
      </g>
    </g>
    <g transform="translate(39,58.53)" stroke="#000000">
      <g class="primitive">
        <text dy="0.35em"></text>
      </g>
    </g>
    <g transform="translate(18.73,51.9)" stroke="#000000">
      <g class="primitive">
        <text dy="0.35em"></text>
      </g>
    </g>
    <g transform="translate(15.55,47.22)" stroke="#000000">
      <g class="primitive">
        <text dy="0.35em"></text>
      </g>
    </g>
    <g transform="translate(9.25,43.52)" stroke="#000000">
      <g class="primitive">
        <text dy="0.35em"></text>
      </g>
    </g>
    <g transform="translate(5.63,30.38)" stroke="#000000">
      <g class="primitive">
        <text dy="0.35em"></text>
      </g>
    </g>
  </g>
</g>
</svg>
